The Doors (1991)

Director: Oliver Stone

The Doors is a 1991 biopic about the 1960s-1970s rock band of the same name which emphasizes the life of its lead singer, Jim Morrison. It was directed by Oliver Stone, and stars Val Kilmer as Morrison, Meg Ryan as Pamela Courson (Morrison's companion), Kyle MacLachlan as Ray Manzarek, Frank Whaley as Robby Krieger, Kevin Dillon as John Densmore, and Kathleen Quinlan as Patricia Kennealy.

The film portrays Morrison as the larger-than-life icon of 1960s rock and roll, counterculture, and the drug-using free love hippie lifestyle. But the depiction goes beyond the iconic: his alcoholism, interest in the spiritual plane and hallucinogenic drugs as entheogens, and, particularly, his growing obsession with death are threads which weave in and out of the film. The film's depiction of Morrison did not sit well with his close friends and family.

Val Kilmer delivers what was considered one of 1991's best performances as Jim Morrison in Oliver Stone's hallucinatory bio-pic of the seminal 1960s rock group The Doors. Stone cuts a jagged swath through Morrison's life, starting with a childhood memory where Morrison sees an elderly Indian dying by the roadside. It picks up with Morrison's arrival in California and his assimilation into the Venice Beach culture, followed by his film school days at UCLA; his introduction to his girlfriend Pamela Courson (Meg Ryan); his first encounters with Ray Manzarek (Kyle MacLachlan); and the origin of The Doors -- made up of Manzarek, Robby Kreiger (Frank Whaley), and John Densmore (Kevin Dillon). As the fame of The Doors grows, Morrison's obsession with death increases. The band grows weary of Morrison's missed recording sessions and no-shows at concerts. Morrison, meanwhile, sinks deeper into a drug-induced haze, having mystical sexual encounters with Patricia Kennealy (Kathleen Quinlan), an older rock journalist involved with sadomasochism and witchcraft. 

Media Info:
General
Complete name                    : J:\Seeding\The Doors (1991)[DVDRip][big_dad_e™]\The Doors (1991)[DVDRip][big_dad_e™].avi
Format                           : AVI
Format/Info                      : Audio Video Interleave
Format profile                   : OpenDML
File size                        : 1.21 GiB
Duration                         : 2h 20mn
Overall bit rate                 : 1 235 Kbps
Movie name                       : DOORS_4X3_LB.Title1.DVDRip
Writing application              : Lavf52.78.4
Original source form/Name        : DOORS_4X3_LB

Video
ID                               : 0
Format                           : MPEG-4 Visual
Format profile                   : Advanced Simple@L5
Format settings, BVOP            : 2
Format settings, QPel            : No
Format settings, GMC             : No warppoints
Format settings, Matrix          : Default (H.263)
Muxing mode                      : Packed bitstream
Codec ID                         : XVID
Codec ID/Hint                    : XviD
Duration                         : 2h 20mn
Bit rate                         : 187 Kbps
Width                            : 600 pixels
Height                           : 260 pixels
Display aspect ratio             : 2.35:1
Frame rate                       : 23.976 fps
Color space                      : YUV
Chroma subsampling               : 4:2:0
Bit depth                        : 8 bits
Scan type                        : Progressive
Compression mode                 : Lossy
Bits/(Pixel*Frame)               : 0.050
Stream size                      : 188 MiB (15%)
Writing library                  : XviD 

Audio
ID                               : 1
Format                           : MPEG Audio
Format version                   : Version 1
Format profile                   : Layer 3
Mode                             : Joint stereo
Mode extension                   : MS Stereo
Codec ID                         : 55
Codec ID/Hint                    : MP3
Duration                         : 2h 20mn
Bit rate mode                    : Constant
Bit rate                         : 320 Kbps
Channel(s)                       : 2 channels
Sampling rate                    : 48.0 KHz
Compression mode                 : Lossy
Stream size                      : 47.9 MiB (4%)
Alignment                        : Aligned on interleaves
Interleave, duration             : 31 ms (0.73 video frame)

File Scan:
Malwarebytes' Anti-Malware 1.50.1.1100
www.malwarebytes.org

Database version: 6139
3/23/2011 2:03:16 AM
mbam-log-2011-03-23 (02-03-16).txt

Scan type: Quick scan
Objects scanned: 5
Time elapsed: 16 second(s)

Memory Processes Infected: 0
Memory Modules Infected: 0
Registry Keys Infected: 0
Registry Values Infected: 0
Registry Data Items Infected: 0
Folders Infected: 0
Files Infected: 0

Memory Processes Infected:
(No malicious items detected)

Memory Modules Infected:
(No malicious items detected)

Registry Keys Infected:
(No malicious items detected)

Registry Values Infected:
(No malicious items detected)

Registry Data Items Infected:
(No malicious items detected)

Folders Infected:
(No malicious items detected)

Files Infected:
(No malicious items detected)

When using TPB please read these important notes:
  
01- Anti-malware apps may warn about keygens, patches, cracks, etc., because of 
    their capabilities, (generating codes, etc.). Sometimes they're added to 
    the virus/spyware database and will be detected as malware. If you don't trust
    the keygens, patches, cracks, etc., don't use them. 
    
02- Before running .exe-files, keygens, patches, cracks, etc., always check first 
    if they can be unpacked. Often some third party added a virus to the 
    original file, repacked it and uploaded it again.

03- Letting anti-malware apps send scan results to their companies can cause
    keygens, patches, cracks, etc., to be added to their virus-database.

04- Firewalls which are set to automatically determine connections will allow 
    apps & malware!. Avoid this by manually configuring your firewall.

05- Usually (new) torrents with many downloads and seeders in a brief period is
    suspicious! Torrents with the Skull & Crossbones icon are trusted.

06- Some people use multiple accounts and post fake comments 
    and/or files trying to spread confusion. They seldom seriously
    comment or have any torrents, or a just a few to look passable.

07- Clicking on unknown links can cause malware to be installed on your machine.
  
08- In general often there are more fake and negative comments than reliable and
    positive comments.

09- In some countries uploading/downloading copyright protected material is 
    forbidden, but showing some appreciation to reliable up-loaders is not.

10- Posting fake and negative comments or fake/infected uploads on TPB can result
    in getting banned from TPB!

Requests?  Find me on SuprBay. http://forum.suprbay.org
 

For reporting bad or suspicious torrents:  
http://forum.suprbay.org/forumdisplay.php?fid=29

For more of my torrents: 
https://thepiratebay.org/user/big_dad_e/  (Secured)

All torrents scanned with:
Norton Anti-virus
Malwarebytes' Anti-malware
 
http://www.pirate-party.us/

ALWAYS SEED & THANKS SEEDERS!